<?xml version="1.0" encoding="UTF-8"?>
<svg id="Layer_2" data-name="Layer 2" xmlns="http://www.w3.org/2000/svg" viewBox="0 0 906.22 125.76">
  <defs>
    <style>
      .cls-1 {
        fill: #6c2b9b;
      }

      .cls-2 {
        fill: #b14ef1;
      }

      .cls-3 {
        fill: #fef6ff;
      }

      .cls-4 {
        fill: #ffd140;
      }
    </style>
  </defs>
  <g id="Layer_1-2" data-name="Layer 1">
    <g>
      <path class="cls-3" d="M235.13,7.26h30.27l28.38,69.93c2.56,6.33,4.96,12.48,6.5,17.95h.34c1.54-5.47,3.93-11.63,6.5-17.95l28.38-69.93h30.27v116.61h-22.06V45.73c0-2.56,0-4.62.34-7.69h-.34c-.68,2.74-1.54,5.13-2.74,8.04l-31.46,76.43h-18.13l-31.46-76.43c-1.2-2.91-2.05-5.3-2.91-8.04h-.34c.34,3.08.34,5.13.34,7.69v78.14h-21.89V7.26Z"/>
      <path class="cls-3" d="M379.26,83.69c0-23.94,18.13-41.89,42.58-41.89s42.41,16.07,42.41,42.06v40.01h-19.15l-1.37-11.97c-5.13,8.72-14.36,13.85-25.99,13.85-21.03,0-38.47-16.76-38.47-42.06ZM442.87,83.69c0-14.02-9.23-23.08-21.03-23.08s-21.2,9.4-21.2,23.08,9.06,23.08,21.2,23.08c10.43,0,21.03-7.35,21.03-23.08Z"/>
      <g>
        <path class="cls-3" d="M510.06,41.8c4.1,0,7.18.34,10.77,1.2v19.49l-5.81-.17c-11.97,0-17.1,5.47-17.1,16.59v44.97h-21.72v-47.37c0-19.32,11.29-34.71,33.86-34.71Z"/>
        <path class="cls-3" d="M526.3,89.17v-45.66h21.72v44.12c0,11.63,5.13,18.81,15.39,18.98,10.94.17,15.73-7.01,15.73-18.98v-44.12h21.72v45.83c0,20.52-15.22,36.42-37.45,36.42-23.77-.17-37.11-15.39-37.11-36.59Z"/>
        <path class="cls-3" d="M650.6,6.06c3.59,0,7.52.51,11.63,1.37v17.27c-1.88-.17-3.42-.34-4.96-.34-9.92,0-14.53,4.79-14.53,13.85v5.3h22.74v17.27h-22.74v63.1h-21.72v-63.1h-15.56v-17.27h15.56v-4.62c0-22.23,12.48-32.83,29.58-32.83Z"/>
        <path class="cls-3" d="M671.63,7.26h21.55v116.61h-21.55V7.26Z"/>
        <path class="cls-3" d="M703.09,83.7c0-23.77,17.95-41.89,42.92-41.89s42.92,18.13,42.92,41.89-17.95,42.06-42.92,42.06-42.92-18.3-42.92-42.06ZM767.55,83.7c0-13.51-9.06-23.08-21.55-23.08s-21.55,9.58-21.55,23.08,9.06,23.08,21.55,23.08,21.55-9.4,21.55-23.08Z"/>
        <path class="cls-3" d="M786.53,43.51h22.23l9.58,38.47c.85,3.59,2.05,9.23,3.08,15.39h.34c.85-6.15,2.05-11.97,2.91-15.39l9.58-38.47h24.11l9.58,38.47c.85,3.42,2.05,9.23,2.91,15.39h.34c1.03-6.15,2.22-11.8,3.08-15.39l9.58-38.47h22.4l-25.48,80.37h-20.86l-10.94-44.46c-1.03-4.1-1.88-8.38-2.39-12.82h-.34c-.68,4.45-1.54,8.72-2.56,12.82l-10.77,44.46h-21.03l-25.31-80.37Z"/>
      </g>
      <g>
        <path class="cls-1" d="M162.61,123.72l-132.24.15c10.61,0,21.33-5.49,27.06-15.4l38.81-67.19,38.79,67.19c5.73,9.9,16.97,15.25,27.58,15.25"/>
        <path class="cls-4" d="M178.22,119.04c-5.12,3.28-10.84,4.84-16.49,4.84-10.61,0-20.97-5.5-26.7-15.4l-38.79-67.19L119.07,7.62c7.18-10.61,23.01-10.03,29.42,1.07l39.83,69.02c8.25,14.25,3.79,32.48-10.1,41.33"/>
        <path class="cls-2" d="M96.24,41.29l-38.81,67.19c-5.73,9.9-16.06,15.4-26.67,15.4-5.65,0-11.38-1.55-16.52-4.84C.34,110.19-4.11,91.96,4.13,77.71L43.99,8.69c6.41-11.1,22.22-11.68,29.42-1.07l22.83,33.67Z"/>
      </g>
    </g>
  </g>
</svg>