<?xml version="1.0" encoding="UTF-8"?>
<svg id="Layer_2" data-name="Layer 2" xmlns="http://www.w3.org/2000/svg" viewBox="0 0 579.24 372.83">
  <defs>
    <style>
      .cls-1 {
        fill: #6c2b9b;
      }

      .cls-2 {
        fill: #b14ef1;
      }

      .cls-3 {
        fill: #ffd140;
      }
    </style>
  </defs>
  <g id="Layer_1-2" data-name="Layer 1">
    <g>
      <path class="cls-1" d="M489.41,372.37l-398.01.45c31.94,0,64.21-16.54,81.44-46.33l116.81-202.22,116.74,202.22c17.23,29.8,51.08,45.88,83.02,45.88"/>
      <path class="cls-3" d="M536.38,358.28c-15.4,9.88-32.63,14.55-49.64,14.55-31.94,0-63.12-16.55-80.35-46.34l-116.74-202.22,68.71-101.34c21.6-31.94,69.25-30.18,88.55,3.22l119.88,207.74c24.82,42.9,11.41,97.74-30.41,124.4"/>
      <path class="cls-2" d="M289.66,124.27l-116.81,202.22c-17.23,29.8-48.33,46.34-80.28,46.34-17.01,0-34.24-4.67-49.71-14.55C1.03,331.62-12.37,276.78,12.44,233.88L132.4,26.15c19.3-33.4,66.87-35.16,88.55-3.22l68.71,101.34Z"/>
    </g>
  </g>
</svg>